<svg width="48" height="48" viewBox="0 0 48 48" fill="none" xmlns="http://www.w3.org/2000/svg">
<path d="M7.5 5.5C6.96957 5.5 6.46086 5.71071 6.08579 6.08579C5.71071 6.46086 5.5 6.96957 5.5 7.5V40.5C5.5 41.0304 5.71071 41.5391 6.08579 41.9142C6.46086 42.2893 6.96957 42.5 7.5 42.5H40.5C41.0304 42.5 41.5391 42.2893 41.9142 41.9142C42.2893 41.5391 42.5 41.0304 42.5 40.5V7.5C42.5 6.96957 42.2893 6.46086 41.9142 6.08579C41.5391 5.71071 41.0304 5.5 40.5 5.5H7.5Z" stroke="black" stroke-linecap="round" stroke-linejoin="round"/>
<path d="M34.0049 29.651C33.6746 30.2305 33.1967 30.7122 32.6199 31.0471C32.0431 31.3821 31.3879 31.5583 30.7209 31.558C29.7186 31.558 28.7573 31.1599 28.0484 30.4512C27.3395 29.7425 26.9412 28.7813 26.9409 27.779V25.323C26.9409 24.3205 27.3392 23.359 28.0481 22.6501C28.7569 21.9412 29.7184 21.543 30.7209 21.543C31.7233 21.5433 32.6845 21.9416 33.3931 22.6505C34.1018 23.3593 34.4999 24.3207 34.4999 25.323V26.551H26.9419" stroke="black" stroke-linecap="round" stroke-linejoin="round"/>
<path d="M19.736 24C20.7277 24.0161 21.6734 24.4214 22.369 25.1285C23.0647 25.8355 23.4545 26.7876 23.4545 27.7795C23.4545 28.7714 23.0647 29.7235 22.369 30.4305C21.6734 31.1376 20.7277 31.5429 19.736 31.559H13.5V16.442H19.736C20.7232 16.4647 21.6623 16.8728 22.3525 17.5791C23.0426 18.2853 23.4291 19.2335 23.4291 20.221C23.4291 21.2085 23.0426 22.1567 22.3525 22.8629C21.6623 23.5692 20.7232 23.9773 19.736 24ZM19.736 24H13.5" stroke="black" stroke-width="0.866" stroke-linecap="round" stroke-linejoin="round"/>
<path d="M26.9419 16.442H34.4999" stroke="black" stroke-linecap="round" stroke-linejoin="round"/>
</svg>
