<?xml version="1.0" encoding="UTF-8" standalone="no"?>
<!DOCTYPE svg PUBLIC "-//W3C//DTD SVG 1.1//EN" "http://www.w3.org/Graphics/SVG/1.1/DTD/svg11.dtd">
<svg width="100%" height="100%" viewBox="0 0 176 214" version="1.1" xmlns="http://www.w3.org/2000/svg" xmlns:xlink="http://www.w3.org/1999/xlink" xml:space="preserve" xmlns:serif="http://www.serif.com/" style="fill-rule:evenodd;clip-rule:evenodd;stroke-linejoin:round;stroke-miterlimit:2;">
    <g transform="matrix(0.1,0,0,-0.1,-88.6072,214.134)">
        <path d="M1460,2130C1460,2125 1454,2120 1446,2120C1438,2120 1433,2112 1435,2103C1437,2093 1439,2083 1439,2080C1440,2077 1444,2081 1449,2089C1454,2097 1469,2105 1482,2107C1495,2109 1514,2114 1525,2120C1536,2125 1554,2131 1565,2133C1576,2136 1557,2138 1523,2139C1487,2140 1460,2136 1460,2130Z" style="fill-rule:nonzero;"/>
        <path d="M1624,2122C1618,2118 1610,2106 1607,2096C1601,2081 1602,2080 1612,2088C1619,2094 1642,2096 1662,2094C1683,2091 1701,2093 1705,2100C1709,2107 1704,2110 1688,2109C1649,2105 1629,2110 1635,2120C1642,2132 1639,2132 1624,2122Z" style="fill-rule:nonzero;"/>
        <path d="M1399,2093C1378,2070 1368,2040 1380,2040C1393,2040 1423,2087 1418,2100C1416,2107 1408,2104 1399,2093Z" style="fill-rule:nonzero;"/>
        <path d="M1885,2048C1886,2030 1890,2017 1895,2018C1899,2020 1907,2016 1911,2008C1918,1998 1920,1999 1920,2013C1920,2022 1916,2030 1910,2030C1905,2030 1900,2041 1900,2055C1900,2069 1896,2080 1892,2080C1887,2080 1884,2065 1885,2048Z" style="fill-rule:nonzero;"/>
        <path d="M1519,2010C1493,1988 1470,1974 1466,1977C1463,1980 1460,1978 1460,1972C1460,1956 1483,1957 1498,1972C1505,1979 1510,1980 1510,1975C1510,1971 1519,1975 1529,1984C1540,1994 1554,2003 1562,2004C1569,2005 1586,2010 1599,2014C1615,2020 1625,2018 1631,2009C1638,1997 1640,1997 1640,2009C1640,2016 1646,2020 1653,2017C1661,2014 1673,2016 1681,2021C1696,2030 1685,2032 1610,2034C1591,2034 1573,2038 1570,2042C1567,2046 1544,2031 1519,2010Z" style="fill-rule:nonzero;"/>
        <path d="M1402,1983C1396,1981 1392,1974 1396,1969C1399,1964 1393,1960 1383,1960C1368,1960 1367,1958 1380,1950C1404,1935 1433,1938 1426,1955C1423,1965 1427,1970 1438,1970C1453,1970 1453,1972 1440,1980C1424,1991 1421,1991 1402,1983Z" style="fill-rule:nonzero;"/>
        <path d="M1980,1920C1980,1909 1986,1900 1994,1900C2018,1900 2022,1918 2000,1930C1983,1939 1980,1938 1980,1920Z" style="fill-rule:nonzero;"/>
        <path d="M1477,1912C1456,1889 1455,1873 1474,1889C1485,1898 1489,1898 1494,1888C1497,1881 1498,1885 1496,1897C1494,1909 1497,1921 1504,1924C1511,1927 1511,1929 1504,1929C1498,1930 1486,1922 1477,1912Z" style="fill-rule:nonzero;"/>
        <path d="M1425,1899C1421,1894 1407,1885 1394,1880C1380,1874 1368,1860 1365,1843C1357,1803 1337,1767 1320,1762C1308,1758 1309,1762 1323,1781C1361,1833 1359,1843 1315,1832C1290,1825 1289,1823 1304,1817C1318,1811 1320,1807 1311,1796C1304,1788 1300,1775 1302,1768C1306,1747 1270,1681 1233,1640C1203,1608 1202,1604 1217,1593C1232,1581 1228,1575 1207,1579C1202,1580 1202,1571 1205,1559C1209,1547 1208,1535 1203,1531C1198,1528 1181,1504 1167,1479L1140,1433L1160,1408C1176,1387 1185,1384 1210,1389C1227,1392 1241,1398 1240,1403L1240,1419C1240,1423 1229,1425 1216,1423C1198,1419 1190,1423 1185,1439C1177,1465 1186,1480 1211,1480C1221,1480 1230,1485 1230,1490C1230,1496 1223,1500 1215,1500C1207,1500 1200,1505 1200,1512C1200,1518 1203,1520 1207,1516C1211,1512 1220,1524 1226,1542C1238,1578 1264,1590 1274,1565C1278,1555 1276,1551 1269,1556C1261,1560 1260,1555 1266,1539C1291,1471 1268,1389 1221,1377C1212,1374 1222,1374 1244,1377C1276,1380 1281,1378 1276,1364C1273,1356 1270,1340 1270,1329C1270,1319 1258,1297 1243,1280L1215,1250L1156,1262C1098,1275 1098,1275 1073,1246C1038,1205 1044,1163 1090,1139C1118,1123 1127,1122 1138,1133C1153,1149 1145,1176 1122,1185C1108,1190 1107,1189 1118,1179C1134,1162 1133,1140 1117,1140C1098,1140 1070,1173 1070,1193C1070,1204 1079,1210 1093,1211C1115,1212 1115,1212 1091,1219L1067,1225L1094,1238C1115,1247 1129,1247 1162,1235C1200,1222 1206,1223 1222,1237C1232,1246 1240,1250 1240,1246C1240,1243 1250,1246 1263,1255C1283,1268 1288,1283 1299,1382C1306,1444 1310,1540 1308,1596C1305,1692 1306,1698 1333,1733C1348,1752 1360,1771 1360,1774C1360,1777 1370,1795 1382,1815L1403,1852L1415,1823C1431,1788 1484,1740 1509,1740C1519,1740 1531,1747 1534,1756C1540,1771 1538,1771 1523,1759C1508,1747 1507,1747 1513,1763C1517,1773 1520,1783 1520,1786C1520,1788 1527,1787 1535,1784C1547,1779 1550,1786 1550,1816L1550,1854L1523,1821C1498,1793 1492,1790 1470,1798C1427,1815 1417,1833 1435,1866C1443,1882 1450,1898 1450,1903C1450,1914 1432,1912 1425,1899Z" style="fill-rule:nonzero;"/>
        <path d="M1785,1830C1789,1823 1777,1822 1748,1826L1705,1833L1729,1811C1742,1800 1765,1790 1779,1791C1822,1792 1889,1771 1928,1745C1948,1731 1971,1720 1980,1720C1992,1721 1991,1723 1978,1731C1966,1737 1960,1753 1960,1774C1960,1793 1953,1813 1945,1820C1931,1831 1931,1830 1940,1806C1952,1772 1953,1760 1941,1760C1936,1760 1928,1769 1925,1780C1921,1791 1915,1798 1910,1795C1906,1792 1897,1797 1890,1805C1883,1814 1869,1818 1860,1815C1850,1812 1835,1816 1827,1825C1810,1842 1775,1846 1785,1830Z" style="fill-rule:nonzero;"/>
        <path d="M1598,1798C1602,1773 1606,1769 1625,1774C1642,1778 1650,1773 1661,1752C1669,1737 1681,1719 1688,1712C1694,1705 1700,1695 1700,1690C1700,1676 1649,1640 1630,1640C1596,1640 1590,1587 1620,1552C1636,1533 1645,1530 1674,1535C1743,1548 1763,1618 1730,1728C1708,1801 1697,1819 1685,1800C1674,1783 1632,1789 1626,1808C1616,1839 1593,1830 1598,1798ZM1725,1602C1722,1599 1715,1601 1709,1607C1701,1615 1701,1627 1711,1650L1725,1681L1728,1644C1730,1624 1729,1605 1725,1602ZM1686,1606C1695,1586 1695,1580 1683,1576C1675,1573 1672,1566 1675,1560C1678,1555 1674,1550 1665,1550C1656,1550 1652,1555 1655,1560C1658,1566 1655,1573 1646,1576C1634,1581 1633,1586 1642,1606C1656,1637 1672,1636 1686,1606Z" style="fill-rule:nonzero;"/>
        <path d="M2004,1742C2005,1686 2007,1680 2025,1682C2037,1684 2044,1680 2042,1672C2041,1664 2046,1660 2057,1662C2066,1664 2073,1668 2072,1673C2071,1677 2070,1689 2070,1701C2070,1716 2065,1721 2048,1718C2028,1715 2023,1722 2014,1760L2003,1805L2004,1742Z" style="fill-rule:nonzero;"/>
        <path d="M2158,1764C2156,1754 2156,1726 2158,1702C2162,1665 2164,1661 2178,1672C2191,1683 2192,1683 2185,1671C2181,1663 2177,1643 2178,1626C2179,1604 2176,1600 2170,1610C2162,1622 2160,1620 2160,1601C2160,1585 2164,1579 2175,1584C2184,1587 2190,1584 2190,1574C2190,1565 2185,1562 2178,1566C2171,1570 2170,1569 2174,1562C2178,1555 2175,1550 2166,1550C2146,1550 2135,1531 2149,1517C2157,1509 2160,1510 2160,1522C2160,1537 2163,1537 2193,1522C2217,1510 2221,1505 2208,1502C2173,1495 2199,1460 2238,1460C2251,1460 2259,1457 2257,1453C2254,1448 2259,1438 2268,1431C2282,1418 2283,1419 2277,1441C2273,1454 2270,1471 2270,1478C2270,1484 2263,1490 2255,1490C2247,1490 2240,1497 2240,1505C2240,1514 2230,1525 2217,1531C2197,1540 2194,1548 2196,1587C2198,1612 2205,1637 2212,1641C2220,1647 2221,1650 2214,1650C2207,1650 2199,1666 2196,1685C2192,1704 2185,1720 2179,1720C2173,1720 2171,1724 2174,1729C2178,1734 2176,1748 2172,1761C2164,1782 2163,1782 2158,1764Z" style="fill-rule:nonzero;"/>
        <path d="M1210,1761C1210,1754 1204,1750 1196,1753C1186,1757 1183,1754 1187,1744C1191,1734 1196,1732 1203,1739C1208,1744 1218,1746 1226,1743C1233,1741 1247,1743 1257,1750C1273,1759 1272,1760 1251,1754C1236,1750 1224,1753 1219,1761C1212,1773 1210,1773 1210,1761Z" style="fill-rule:nonzero;"/>
        <path d="M1556,1727C1565,1698 1566,1697 1585,1703C1607,1712 1603,1723 1574,1737C1551,1748 1550,1747 1556,1727Z" style="fill-rule:nonzero;"/>
        <path d="M1131,1670C1131,1662 1141,1643 1153,1628C1173,1603 1176,1602 1176,1620C1176,1631 1171,1640 1164,1640C1158,1640 1148,1650 1142,1663C1136,1676 1131,1679 1131,1670Z" style="fill-rule:nonzero;"/>
        <path d="M1980,1647C1980,1612 2010,1530 2038,1488C2067,1444 2070,1442 2063,1473C2059,1487 2061,1492 2067,1485C2086,1466 2103,1379 2104,1295C2105,1236 2109,1210 2117,1210C2123,1210 2132,1215 2136,1222C2141,1230 2138,1231 2127,1227C2117,1224 2110,1223 2110,1225C2110,1238 2136,1286 2147,1293C2154,1297 2157,1307 2154,1314C2151,1322 2153,1331 2158,1334C2170,1341 2154,1422 2139,1431C2132,1435 2133,1444 2141,1458C2152,1475 2152,1482 2142,1492C2133,1501 2130,1499 2130,1478C2130,1464 2124,1450 2117,1447C2101,1441 2095,1506 2110,1515C2116,1518 2119,1538 2119,1558C2117,1592 2117,1592 2113,1565C2110,1549 2104,1531 2098,1525C2091,1518 2090,1529 2094,1562C2099,1592 2097,1611 2090,1615C2070,1628 2066,1610 2077,1557C2083,1529 2086,1503 2084,1501C2082,1499 2069,1503 2055,1510C2030,1523 2010,1566 2010,1607C2010,1620 2006,1629 2001,1626C1997,1623 1995,1632 1998,1645C2000,1660 1998,1670 1991,1670C1985,1670 1980,1660 1980,1647ZM2150,1348C2150,1341 2143,1327 2136,1317C2122,1299 2122,1299 2115,1318C2112,1329 2112,1350 2116,1364C2121,1386 2124,1387 2136,1375C2144,1368 2150,1355 2150,1348Z" style="fill-rule:nonzero;"/>
        <path d="M1100,1631C1100,1620 1097,1605 1094,1596C1090,1585 1093,1580 1104,1580C1116,1580 1120,1590 1120,1615C1120,1634 1116,1650 1110,1650C1105,1650 1100,1641 1100,1631Z" style="fill-rule:nonzero;"/>
        <path d="M1138,1563C1118,1561 1096,1552 1090,1545C1079,1532 1082,1532 1109,1541C1126,1547 1147,1550 1154,1547C1162,1544 1171,1548 1174,1556C1177,1564 1178,1569 1177,1568C1176,1567 1158,1565 1138,1563Z" style="fill-rule:nonzero;"/>
        <path d="M1778,1553C1769,1551 1759,1543 1757,1535C1753,1525 1764,1522 1803,1522C1840,1521 1850,1524 1840,1531C1809,1551 1795,1556 1778,1553Z" style="fill-rule:nonzero;"/>
        <path d="M1866,1537C1869,1528 1886,1518 1903,1514C1921,1511 1941,1503 1949,1496C1961,1487 1961,1488 1949,1508C1941,1520 1929,1528 1923,1525C1916,1523 1910,1525 1910,1531C1910,1537 1905,1538 1900,1535C1894,1531 1882,1534 1874,1541C1862,1551 1861,1550 1866,1537Z" style="fill-rule:nonzero;"/>
        <path d="M1384,1520C1343,1504 1350,1493 1396,1500C1421,1504 1453,1505 1468,1503C1494,1499 1494,1499 1476,1514C1454,1531 1417,1534 1384,1520Z" style="fill-rule:nonzero;"/>
        <path d="M1748,1473C1724,1467 1713,1421 1731,1409C1748,1398 1770,1397 1754,1408C1748,1412 1740,1424 1736,1435C1732,1446 1732,1451 1736,1447C1740,1443 1749,1445 1757,1451C1767,1460 1770,1457 1770,1437C1770,1420 1778,1406 1792,1399C1811,1389 1817,1391 1838,1415C1857,1438 1864,1440 1870,1429C1877,1419 1882,1418 1891,1427C1907,1443 1894,1458 1852,1470C1814,1480 1779,1481 1748,1473ZM1830,1435C1830,1415 1803,1409 1789,1426C1779,1439 1779,1443 1790,1450C1807,1460 1830,1452 1830,1435Z" style="fill-rule:nonzero;"/>
        <path d="M1407,1448C1389,1442 1381,1433 1384,1424C1387,1416 1384,1411 1378,1413C1372,1414 1366,1410 1363,1403C1357,1387 1403,1399 1413,1417C1425,1436 1434,1433 1447,1405C1457,1381 1457,1380 1432,1385C1408,1390 1407,1390 1427,1381C1455,1368 1516,1385 1525,1408C1533,1430 1496,1460 1461,1459C1447,1459 1422,1454 1407,1448Z" style="fill-rule:nonzero;"/>
        <path d="M2165,1430C2162,1425 2164,1420 2169,1420C2175,1420 2180,1411 2180,1401C2180,1390 2184,1379 2189,1376C2194,1373 2196,1338 2194,1299C2191,1241 2186,1223 2169,1207C2155,1194 2151,1185 2159,1182C2166,1180 2160,1170 2145,1158C2118,1137 2103,1141 2090,1174C2082,1195 2082,1195 2074,1175C2070,1164 2049,1137 2028,1115C2007,1094 1990,1068 1990,1058C1990,1035 1956,1016 1942,1033C1937,1039 1909,1092 1880,1149C1817,1273 1792,1303 1754,1294C1733,1289 1723,1293 1704,1315C1691,1331 1680,1348 1680,1354C1680,1360 1675,1359 1668,1351C1657,1341 1660,1335 1679,1319C1700,1302 1701,1297 1690,1290C1682,1285 1665,1283 1652,1287C1640,1290 1623,1287 1616,1280C1605,1272 1596,1271 1580,1280C1557,1292 1536,1285 1546,1268C1551,1261 1547,1259 1537,1263C1527,1266 1520,1265 1520,1260C1520,1245 1558,1248 1563,1263C1566,1272 1570,1272 1580,1263C1589,1254 1599,1254 1613,1261C1626,1269 1635,1269 1642,1262C1649,1255 1635,1216 1597,1138C1531,1006 1521,977 1544,986C1553,989 1560,1002 1560,1014C1560,1025 1571,1054 1584,1077C1598,1100 1612,1130 1616,1142C1619,1155 1631,1177 1641,1192C1652,1206 1660,1227 1660,1238C1660,1266 1685,1283 1715,1276C1733,1271 1740,1263 1740,1246C1740,1233 1747,1217 1755,1210C1771,1197 1792,1130 1793,1090C1793,1076 1795,1071 1797,1078C1805,1101 1817,1090 1839,1041C1860,990 1880,968 1880,992C1880,1000 1867,1027 1850,1053C1814,1110 1749,1278 1761,1285C1771,1292 1840,1189 1840,1167C1840,1159 1845,1150 1851,1148C1856,1146 1862,1138 1863,1129C1865,1121 1876,1103 1888,1090C1900,1077 1910,1061 1910,1055C1910,1037 1950,1005 2008,975C2068,946 2089,945 2035,975C1997,995 1994,1001 2012,1033C2018,1045 2025,1066 2026,1079C2029,1105 2057,1140 2074,1140C2080,1140 2091,1127 2098,1110C2115,1074 2129,1071 2122,1105C2119,1125 2122,1130 2137,1130C2158,1130 2180,1150 2200,1190C2213,1215 2216,1227 2223,1318C2226,1347 2230,1373 2233,1376C2238,1382 2189,1440 2178,1440C2174,1440 2168,1436 2165,1430Z" style="fill-rule:nonzero;"/>
        <path d="M1016,1391C1013,1387 1023,1383 1038,1384C1053,1384 1081,1381 1100,1377L1135,1370L1105,1385C1071,1401 1024,1404 1016,1391Z" style="fill-rule:nonzero;"/>
        <path d="M1280,1230C1272,1215 1272,1210 1281,1210C1289,1210 1289,1206 1280,1195C1273,1186 1272,1180 1278,1180C1283,1180 1291,1168 1294,1153C1300,1131 1294,1119 1257,1081C1209,1030 1180,991 1180,975C1180,970 1184,971 1189,979C1197,991 1201,991 1215,977C1224,967 1241,960 1253,960C1274,961 1273,962 1248,981C1232,992 1220,1007 1220,1013C1220,1025 1257,1054 1273,1055C1277,1055 1285,1061 1290,1069C1297,1081 1301,1081 1314,1071C1323,1063 1330,1052 1330,1046C1331,1031 1380,972 1380,987C1380,993 1375,1002 1369,1006C1350,1017 1316,1103 1314,1143C1313,1164 1308,1189 1304,1198C1300,1207 1298,1223 1299,1233C1302,1256 1293,1255 1280,1230Z" style="fill-rule:nonzero;"/>
        <path d="M1234,1222C1234,1213 1225,1201 1213,1195C1191,1186 1182,1170 1198,1170C1208,1170 1222,1182 1243,1206C1258,1224 1258,1228 1247,1233C1238,1236 1233,1232 1234,1222Z" style="fill-rule:nonzero;"/>
        <path d="M1551,1185C1528,1154 1505,1132 1499,1135C1485,1144 1494,1102 1510,1087C1520,1077 1522,1078 1517,1093C1509,1116 1568,1193 1587,1186C1596,1182 1600,1190 1600,1210C1600,1227 1598,1240 1596,1240C1594,1240 1574,1215 1551,1185Z" style="fill-rule:nonzero;"/>
        <path d="M1714,1192C1718,1162 1717,1151 1710,1155C1704,1159 1701,1164 1704,1168C1707,1171 1702,1179 1692,1186C1677,1198 1677,1201 1690,1210C1703,1218 1703,1220 1688,1220C1653,1220 1670,1171 1726,1107C1745,1087 1760,1062 1760,1052C1760,1041 1771,1021 1784,1005C1797,990 1811,961 1814,940C1820,904 1859,842 1860,868C1860,874 1856,880 1850,880C1845,880 1840,894 1840,910C1840,941 1809,1014 1790,1025C1785,1028 1780,1039 1780,1049C1780,1059 1772,1078 1761,1091C1751,1104 1740,1137 1737,1164C1733,1191 1725,1218 1719,1224C1710,1232 1709,1224 1714,1192Z" style="fill-rule:nonzero;"/>
        <path d="M1230,1170C1217,1161 1217,1158 1233,1149C1242,1143 1248,1135 1246,1131C1243,1126 1252,1125 1265,1128C1279,1130 1287,1136 1284,1141C1281,1146 1274,1148 1269,1145C1252,1134 1238,1151 1251,1166C1264,1182 1252,1184 1230,1170Z" style="fill-rule:nonzero;"/>
        <path d="M1376,1111C1371,1103 1399,1072 1407,1078C1427,1092 1447,1044 1442,992C1440,974 1435,962 1430,965C1425,968 1424,978 1427,987C1431,998 1430,1001 1422,996C1406,986 1407,972 1425,954C1437,941 1441,943 1455,969C1477,1012 1474,1053 1448,1077C1416,1106 1382,1122 1376,1111Z" style="fill-rule:nonzero;"/>
        <path d="M1637,1103C1621,1046 1620,1029 1630,1035C1637,1040 1640,1035 1638,1023C1637,1013 1645,992 1657,977C1696,927 1694,945 1647,1047C1633,1077 1646,1089 1666,1064C1690,1034 1710,983 1710,953C1710,935 1720,915 1739,898C1755,883 1771,859 1774,844C1783,811 1806,787 1823,793C1832,797 1832,799 1823,799C1816,800 1810,808 1810,818C1810,827 1794,857 1775,885C1755,912 1730,960 1718,993C1692,1065 1644,1130 1637,1103Z" style="fill-rule:nonzero;"/>
        <path d="M2076,1066C2079,1047 2082,1014 2082,993C2082,972 2089,936 2097,913C2109,881 2117,872 2131,875C2141,877 2150,874 2150,868C2150,863 2143,860 2135,864C2101,877 2124,840 2190,777C2228,740 2261,706 2262,702C2264,698 2272,696 2280,698C2292,700 2292,699 2281,692C2270,684 2271,678 2285,656C2295,642 2308,630 2314,631C2339,634 2351,629 2344,619C2339,611 2335,611 2330,620C2326,627 2320,628 2317,623C2314,618 2322,602 2336,587C2349,573 2360,556 2360,550C2360,545 2363,540 2366,540C2380,540 2446,585 2473,612L2501,641L2520,596C2531,572 2543,538 2546,520C2550,503 2559,486 2566,483C2574,480 2580,474 2580,468C2580,463 2576,462 2570,465C2562,470 2577,415 2597,370C2603,356 2608,260 2603,260C2601,260 2590,280 2578,304C2552,353 2382,536 2372,525C2368,522 2373,514 2383,509C2392,503 2400,494 2400,488C2400,483 2411,469 2425,458C2439,447 2448,434 2444,429C2441,424 2443,421 2448,422C2466,427 2552,337 2572,291C2594,242 2602,111 2587,38C2581,8 2582,0 2593,0C2612,0 2616,12 2630,107C2639,169 2639,198 2627,252C2620,289 2617,325 2621,331C2625,338 2631,375 2635,415L2593,561C2542,638 2539,644 2494,747C2480,782 2464,807 2459,804C2454,801 2453,806 2456,814C2472,857 2365,981 2295,999C2240,1013 2153,1013 2145,1000C2137,987 2103,987 2095,1000C2091,1006 2094,1017 2100,1025C2110,1037 2110,1047 2100,1070C2083,1111 2068,1108 2076,1066ZM2174,945C2169,923 2171,921 2186,927C2197,930 2208,938 2211,943C2215,949 2225,948 2236,941C2253,932 2253,931 2238,930C2229,930 2218,926 2215,920C2212,915 2215,913 2223,916C2240,922 2251,900 2243,871C2237,847 2220,843 2220,865C2220,873 2225,880 2230,880C2236,880 2240,885 2240,891C2240,897 2231,900 2220,897C2209,894 2202,896 2205,900C2211,910 2191,925 2184,917C2181,914 2186,898 2195,881C2209,852 2208,846 2187,849C2183,850 2177,843 2174,835C2170,827 2163,820 2158,820C2152,820 2153,826 2160,835C2167,843 2169,850 2164,851C2159,851 2164,855 2175,860C2195,869 2195,869 2175,869C2161,870 2159,873 2168,878C2184,889 2173,920 2155,914C2133,905 2128,928 2147,949C2172,976 2182,975 2174,945ZM2280,936C2280,928 2287,920 2295,916C2303,913 2310,915 2310,921C2310,927 2317,929 2326,926C2335,922 2348,924 2355,930C2364,938 2370,938 2375,930C2378,925 2373,920 2363,919C2347,919 2347,918 2364,911C2383,904 2383,903 2364,896C2345,888 2345,888 2365,880C2376,876 2391,877 2398,882C2406,889 2410,889 2410,881C2410,875 2403,867 2395,864C2371,854 2378,838 2403,845C2424,852 2424,852 2407,834C2390,816 2388,816 2379,833C2373,842 2364,850 2358,850C2351,850 2352,844 2360,835C2367,826 2370,817 2367,813C2360,807 2321,849 2320,862C2320,866 2309,864 2295,858C2279,851 2271,841 2275,832C2278,824 2275,820 2268,822C2247,829 2248,848 2271,855C2287,861 2289,864 2279,871C2272,875 2269,882 2273,886C2277,890 2285,889 2291,883C2299,875 2309,875 2326,882C2351,893 2349,910 2324,910C2316,910 2312,906 2315,900C2318,895 2316,890 2311,890C2305,890 2300,895 2300,900C2300,906 2289,910 2276,910C2257,910 2253,914 2257,930C2263,953 2280,957 2280,936ZM2356,782C2352,779 2343,786 2334,798C2326,810 2314,820 2308,820C2302,820 2304,812 2313,802C2340,772 2334,753 2306,779C2286,798 2284,805 2294,825L2305,848L2333,818C2349,802 2359,786 2356,782ZM2428,823C2425,818 2418,801 2411,783C2403,762 2394,753 2384,757C2364,765 2367,755 2394,725C2409,709 2416,692 2413,680C2407,657 2405,656 2379,670C2364,678 2360,677 2360,665C2360,657 2367,650 2375,650C2383,650 2390,646 2390,640C2390,625 2363,628 2346,646C2327,665 2325,674 2343,664C2352,659 2352,660 2343,670C2334,680 2327,680 2318,672C2307,664 2304,665 2303,678C2302,692 2310,695 2340,694C2361,693 2383,689 2389,685C2395,682 2400,682 2400,685C2400,688 2385,698 2368,706C2336,720 2336,721 2363,717C2378,715 2390,717 2390,721C2390,730 2368,734 2343,731C2322,728 2328,748 2350,755C2363,759 2370,770 2370,786C2370,803 2375,810 2390,810C2401,810 2410,815 2410,820C2410,826 2415,830 2421,830C2427,830 2430,827 2428,823ZM2447,762C2437,760 2430,753 2431,747C2435,717 2428,707 2419,729C2412,746 2413,756 2421,761C2427,765 2429,773 2425,780C2420,789 2424,788 2441,779C2462,768 2463,765 2447,762ZM2302,760C2314,749 2319,740 2312,740C2306,740 2298,745 2295,750C2292,756 2284,760 2278,760C2272,760 2274,752 2283,742C2302,721 2305,710 2290,710C2285,710 2280,717 2280,725C2280,733 2273,740 2265,740C2252,740 2252,743 2262,760C2269,771 2276,780 2278,780C2279,780 2290,771 2302,760ZM2461,700C2467,700 2468,705 2465,710C2462,716 2464,720 2469,720C2485,720 2482,708 2460,680C2450,666 2438,659 2433,663C2429,668 2431,675 2438,679C2445,683 2449,693 2447,701C2445,709 2445,712 2447,708C2450,703 2456,700 2461,700ZM2467,630C2457,612 2440,603 2440,614C2440,616 2437,626 2433,636C2428,649 2430,652 2443,647C2452,644 2460,645 2460,651C2460,657 2464,658 2470,655C2476,651 2475,642 2467,630Z" style="fill-rule:nonzero;"/>
        <path d="M1323,974C1327,967 1320,959 1307,955C1295,951 1282,947 1278,945C1273,944 1263,942 1255,941C1239,940 1234,910 1250,910C1256,910 1260,906 1260,901C1260,896 1251,894 1241,897C1228,900 1212,893 1196,876C1182,862 1170,853 1170,856C1170,858 1156,845 1139,826C1122,806 1111,786 1115,780C1118,775 1114,770 1106,770C1097,770 1090,765 1090,759C1090,753 1074,732 1055,712C1027,682 1020,668 1021,635L1022,595L1036,628C1052,666 1056,664 1112,604C1134,580 1156,563 1161,566C1166,569 1170,565 1170,558C1170,551 1197,572 1230,605C1262,637 1286,668 1283,673C1280,679 1281,681 1286,677C1291,674 1311,687 1330,706C1358,734 1365,748 1366,784C1367,808 1370,832 1373,837C1384,855 1391,911 1385,930C1382,941 1372,950 1364,950C1355,950 1352,955 1356,963C1360,969 1360,972 1355,968C1351,964 1340,966 1332,973C1322,980 1319,981 1323,974ZM1335,900C1319,896 1311,892 1319,891C1327,890 1330,884 1326,874C1321,861 1324,859 1339,863C1352,866 1357,863 1354,856C1347,839 1290,840 1290,857C1290,864 1295,870 1300,870C1306,870 1310,875 1310,881C1310,886 1304,888 1298,884C1289,879 1289,882 1299,893C1306,902 1324,909 1339,909C1364,908 1364,907 1335,900ZM1259,865C1260,857 1261,841 1262,830C1263,819 1268,810 1271,810C1275,810 1275,798 1271,783C1267,767 1265,749 1267,743C1270,736 1266,730 1260,730C1251,730 1250,741 1254,765C1258,787 1257,800 1251,800C1245,800 1242,814 1244,830C1246,847 1243,860 1239,860C1234,860 1230,865 1230,870C1230,886 1256,881 1259,865ZM1333,823C1326,821 1320,812 1320,804C1320,796 1313,790 1305,790C1284,790 1286,818 1308,823C1331,829 1348,830 1333,823ZM1215,790C1218,785 1227,783 1235,787C1243,790 1250,788 1250,783C1250,769 1197,715 1176,707C1159,700 1153,660 1170,660C1176,660 1180,654 1180,648C1179,641 1170,646 1160,659C1147,674 1140,677 1140,668C1140,660 1145,649 1152,642C1160,634 1160,630 1153,630C1147,630 1138,636 1132,643C1122,655 1120,661 1120,680C1120,686 1113,690 1105,690C1097,690 1090,695 1090,701C1090,707 1096,710 1103,707C1109,705 1120,710 1127,719C1133,728 1142,732 1146,728C1150,724 1147,714 1140,705C1121,682 1136,687 1162,713C1175,726 1195,742 1205,748C1224,759 1224,761 1208,770C1189,782 1184,800 1199,800C1205,800 1211,796 1215,790ZM1324,764C1328,755 1328,745 1325,742C1322,739 1320,742 1320,748C1320,773 1294,759 1292,733C1290,704 1268,683 1261,702C1259,709 1262,716 1269,718C1275,720 1280,732 1280,745C1280,766 1290,777 1311,779C1315,780 1321,773 1324,764ZM1194,693C1198,688 1211,685 1223,685C1234,685 1245,679 1247,673C1250,666 1247,660 1241,660C1235,660 1230,665 1230,670C1230,676 1224,675 1216,668C1208,661 1204,652 1207,648C1209,643 1206,640 1201,640C1195,640 1190,649 1190,660C1190,671 1186,680 1180,680C1175,680 1170,685 1170,690C1170,702 1183,703 1194,693Z" style="fill-rule:nonzero;"/>
        <path d="M1596,947C1586,908 1591,894 1605,925C1618,955 1618,955 1625,893C1629,858 1636,830 1641,830C1646,830 1647,845 1643,863C1638,891 1639,893 1653,880C1661,872 1679,843 1693,816C1714,777 1717,763 1709,741C1688,687 1606,591 1549,555C1529,542 1507,517 1499,498C1492,480 1480,459 1472,451C1461,440 1461,436 1472,429C1482,422 1481,420 1468,420C1457,420 1453,415 1456,405C1460,396 1456,390 1446,390C1438,390 1426,381 1420,370C1414,359 1413,350 1417,350C1421,350 1416,344 1405,337C1395,329 1390,318 1394,312C1398,305 1395,300 1385,300C1374,300 1370,295 1374,284C1377,276 1376,271 1371,274C1359,282 1349,254 1356,233C1360,220 1359,218 1352,228C1345,238 1339,235 1326,216C1317,202 1313,190 1317,190C1321,190 1314,183 1301,174C1287,164 1280,151 1283,140C1286,129 1283,123 1276,126C1270,128 1256,117 1247,100C1237,83 1205,54 1177,35C1142,12 1132,0 1145,0C1155,0 1177,12 1193,28L1223,55L1218,28C1213,4 1216,0 1236,0C1249,0 1260,5 1260,11C1260,16 1256,18 1250,15C1245,12 1240,14 1240,19C1240,25 1247,30 1255,30C1263,30 1270,23 1270,15C1270,-7 1287,-3 1293,20C1296,31 1295,40 1290,40C1279,40 1270,79 1277,96C1280,104 1287,110 1292,110C1298,110 1300,103 1296,95C1293,86 1296,80 1305,80C1313,80 1320,75 1320,69C1320,63 1313,60 1305,64C1284,72 1286,53 1308,41C1322,32 1322,29 1311,21C1301,15 1301,11 1310,5C1317,1 1326,4 1331,11C1337,21 1342,22 1348,14C1352,8 1369,3 1387,2C1419,1 1434,18 1424,44C1420,53 1427,58 1447,58C1478,59 1520,42 1520,28C1520,23 1511,25 1499,33C1476,50 1440,44 1440,24C1440,6 1461,-5 1469,8C1473,15 1488,16 1510,11C1538,5 1549,7 1564,22C1587,44 1606,40 1602,15C1599,1 1601,0 1612,11C1620,18 1624,37 1622,54C1620,77 1621,81 1629,70C1640,54 1699,48 1716,62C1724,67 1729,64 1733,51C1737,34 1733,33 1686,36C1655,38 1640,36 1649,31C1656,26 1660,18 1657,14C1654,9 1665,5 1681,4C1696,3 1707,7 1704,11C1701,16 1706,20 1715,20C1724,20 1728,16 1725,10C1722,5 1726,0 1735,0C1746,0 1750,5 1746,15C1743,23 1747,33 1755,37C1762,42 1769,48 1770,52C1770,56 1782,72 1795,86C1813,105 1820,108 1820,98C1820,89 1814,80 1808,77C1789,70 1758,12 1769,6C1774,3 1783,13 1790,29C1796,45 1817,66 1836,76C1866,93 1872,93 1880,80C1894,58 1892,40 1876,40C1860,40 1810,1 1826,0C1831,0 1840,4 1846,9C1862,25 1905,26 1918,10C1930,-3 1931,-3 1926,13C1923,22 1917,37 1914,45C1910,55 1914,60 1926,60C1942,60 1943,58 1930,50C1920,44 1919,40 1927,40C1934,40 1939,37 1939,33C1938,28 1938,18 1939,10C1940,-2 1942,-2 1950,12C1965,37 1947,75 1920,75C1907,75 1895,82 1892,90C1888,102 1889,103 1902,92C1915,82 1921,82 1936,97C1953,114 1954,114 1947,97C1941,82 1944,80 1963,85C1980,91 1983,90 1973,80C1965,71 1964,61 1970,49C1977,38 1977,29 1970,25C1965,22 1960,13 1960,7C1960,0 1964,1 1970,10C1978,22 1982,23 1989,12C1995,1 1999,3 2003,19C2006,31 2003,40 1997,40C1990,40 1993,45 2003,51C2013,57 2027,59 2035,57C2048,51 2065,67 2087,107C2098,126 2097,128 2086,124C2068,117 2046,155 2057,173C2061,179 2063,195 2061,208C2059,230 2074,238 2085,220C2089,214 2096,212 2101,216C2107,219 2118,214 2125,204C2142,181 2144,170 2130,170C2125,170 2120,177 2120,185C2120,198 2102,204 2083,198C2074,194 2073,140 2083,140C2087,140 2090,149 2090,160C2090,171 2095,180 2101,180C2108,180 2110,170 2106,155C2099,128 2114,120 2124,145C2127,153 2135,160 2141,160C2149,160 2148,155 2139,143C2127,128 2127,127 2143,133C2162,140 2167,125 2148,114C2142,110 2134,112 2132,118C2130,125 2124,128 2120,125C2115,122 2113,113 2116,105C2120,96 2128,94 2143,99C2173,110 2189,92 2176,64C2165,41 2128,28 2103,37C2080,46 2089,61 2115,54C2136,49 2170,66 2170,83C2170,93 2140,85 2136,73C2133,66 2126,60 2120,60C2114,60 2111,64 2114,69C2122,81 2110,110 2098,110C2092,110 2090,101 2093,90C2096,77 2090,66 2073,55C2059,46 2046,41 2043,44C2034,53 2008,21 2016,9C2019,3 2025,2 2029,6C2050,36 2114,41 2096,11C2092,5 2093,0 2099,0C2104,0 2111,6 2114,13C2119,22 2121,22 2126,12C2131,2 2135,3 2146,17C2153,27 2160,30 2160,24C2160,17 2166,10 2173,7C2183,3 2186,9 2183,28C2181,43 2183,49 2186,43C2189,36 2199,30 2208,29C2219,29 2220,27 2213,23C2190,14 2200,4 2234,2L2268,-1L2226,64C2203,99 2176,147 2165,169C2155,192 2143,210 2138,210C2134,210 2130,219 2130,229C2130,245 2125,247 2099,243C2073,239 2069,241 2072,257C2074,267 2067,282 2056,291C2042,302 2039,312 2045,326C2052,343 2053,344 2057,327C2060,318 2066,310 2071,310C2085,310 2095,341 2084,349C2079,352 2066,382 2056,415C2046,448 2034,480 2030,485C2026,491 2018,516 2011,541C2000,582 1993,589 1947,612C1918,626 1862,661 1822,689C1765,730 1745,751 1725,793C1711,821 1701,849 1704,855C1706,861 1694,872 1678,879C1660,887 1642,906 1634,926C1616,968 1604,975 1596,947ZM1866,630C1874,630 1880,623 1880,614C1880,606 1876,601 1871,604C1867,607 1855,601 1845,590C1835,579 1823,570 1819,570C1815,570 1799,565 1783,558C1753,545 1744,543 1718,541C1708,541 1700,532 1700,523C1699,507 1698,507 1687,521C1680,529 1667,539 1658,543C1625,555 1638,591 1694,646L1748,700L1800,665C1829,646 1858,630 1866,630ZM1938,555C1938,532 1936,531 1925,547C1913,563 1911,563 1896,548C1874,525 1876,517 1903,525C1922,531 1921,528 1894,504C1877,488 1854,470 1844,463C1830,454 1828,449 1837,442C1847,436 1847,430 1835,414C1818,392 1815,376 1830,385C1836,388 1840,384 1840,374C1840,361 1837,360 1825,370C1817,376 1806,379 1799,375C1793,371 1784,374 1779,381C1772,392 1767,391 1752,374C1732,348 1690,325 1690,339C1690,344 1681,352 1670,355C1659,358 1650,366 1650,371C1650,376 1665,374 1684,366C1717,352 1719,353 1744,379C1774,410 1777,422 1754,413C1742,409 1739,411 1742,421C1748,439 1729,459 1711,452C1704,449 1708,458 1721,472C1734,485 1752,494 1760,491C1772,487 1773,489 1762,502C1752,514 1753,520 1765,530C1774,537 1784,540 1787,536C1791,532 1788,525 1780,520C1767,512 1767,510 1781,510C1790,510 1802,498 1809,484C1815,469 1823,460 1826,463C1829,466 1826,478 1820,490C1814,502 1811,514 1814,518C1817,521 1820,518 1820,511C1820,504 1825,502 1832,506C1840,511 1841,508 1837,497C1829,476 1839,476 1864,495C1881,508 1881,510 1866,525C1857,534 1850,537 1850,531C1850,525 1846,520 1840,520C1835,520 1830,527 1830,536C1830,548 1836,551 1854,546C1873,541 1880,545 1885,560C1889,572 1900,580 1914,580C1932,580 1938,574 1938,555ZM1624,554C1627,546 1626,542 1620,545C1614,548 1610,544 1610,535C1610,526 1615,522 1621,526C1629,530 1630,525 1625,510C1620,495 1621,490 1629,494C1635,498 1640,495 1640,487C1640,470 1603,457 1594,471C1591,476 1594,480 1600,480C1608,480 1610,489 1606,506C1600,529 1606,570 1615,570C1616,570 1621,563 1624,554ZM1550,515C1550,508 1557,497 1567,492C1577,486 1581,476 1577,466C1569,445 1550,455 1550,480C1550,490 1546,502 1540,505C1535,508 1530,515 1530,521C1530,526 1535,530 1540,530C1546,530 1550,523 1550,515ZM1955,510C1958,505 1967,503 1975,507C1983,510 1990,507 1990,501C1990,495 1986,490 1980,490C1975,490 1970,486 1970,480C1970,475 1977,470 1986,470C2000,470 2000,467 1990,455C1982,446 1982,440 1988,440C1994,440 2001,427 2005,410C2009,394 2020,378 2031,375C2052,368 2056,355 2040,345C2035,342 2030,347 2030,356C2030,366 2027,370 2024,367C2013,356 1982,399 1976,435C1972,454 1965,470 1960,470C1954,470 1950,478 1950,487C1950,503 1949,503 1934,488C1914,468 1922,438 1945,446C1953,449 1960,448 1960,442C1960,437 1949,430 1935,428C1916,424 1910,427 1910,441C1910,462 1884,467 1877,448C1875,441 1869,438 1865,442C1855,451 1884,480 1903,480C1911,480 1920,489 1923,500C1928,521 1945,526 1955,510ZM1725,490C1721,484 1714,482 1709,485C1704,489 1698,485 1695,478C1692,470 1681,464 1670,463C1646,461 1644,469 1666,484C1686,499 1733,503 1725,490ZM1590,439C1590,435 1585,428 1580,425C1574,421 1572,415 1575,410C1578,405 1576,399 1570,395C1565,392 1560,398 1560,409C1560,421 1556,430 1550,430C1545,430 1543,423 1546,415C1550,407 1547,400 1542,400C1526,400 1518,418 1530,425C1536,429 1538,435 1536,439C1533,443 1544,447 1560,447C1577,447 1590,443 1590,439ZM1683,443C1668,437 1666,410 1680,410C1686,410 1690,402 1690,393C1690,380 1687,379 1678,388C1669,397 1662,396 1649,384C1638,374 1630,372 1625,379C1622,385 1626,393 1634,396C1643,399 1650,408 1650,414C1650,429 1671,450 1685,449C1690,449 1689,446 1683,443ZM1961,404C1971,391 1971,387 1959,379C1951,374 1940,370 1933,370C1927,370 1920,364 1917,358C1914,349 1907,350 1891,364C1872,381 1870,381 1870,367C1870,357 1866,350 1860,350C1855,350 1850,357 1850,365C1850,384 1880,397 1889,382C1897,369 1914,379 1923,403C1931,424 1944,425 1961,404ZM1616,365C1620,350 1628,341 1638,342C1666,347 1660,325 1630,313C1606,304 1600,304 1600,315C1600,322 1604,330 1609,332C1614,334 1614,345 1608,359C1600,381 1598,382 1584,368C1571,356 1570,348 1579,332C1596,300 1592,266 1569,252C1540,234 1534,244 1560,268C1576,282 1579,294 1574,314C1571,328 1564,337 1559,334C1542,324 1550,346 1570,368C1597,397 1608,396 1616,365ZM1800,345C1800,337 1796,330 1790,330C1785,330 1780,334 1780,340C1780,345 1769,340 1756,329C1743,317 1728,308 1723,307C1719,307 1710,300 1703,291C1696,282 1690,280 1690,286C1690,293 1683,300 1676,303C1666,307 1663,304 1667,294C1670,287 1667,280 1660,280C1654,280 1650,272 1652,263C1653,253 1650,243 1645,242C1639,240 1629,234 1623,228C1614,221 1610,221 1610,230C1610,237 1618,249 1628,257C1644,270 1643,271 1623,267C1595,261 1594,264 1622,292C1638,308 1642,309 1637,297C1634,288 1635,280 1640,280C1646,280 1650,286 1650,294C1650,313 1676,334 1684,321C1693,308 1747,327 1754,346C1761,365 1800,364 1800,345ZM1860,313C1860,288 1830,309 1817,343C1811,360 1811,360 1835,343C1848,333 1860,319 1860,313ZM1926,340C1934,340 1940,333 1940,325C1940,316 1946,313 1955,316C1966,321 1968,318 1964,306C1956,286 1951,286 1929,306C1912,321 1910,320 1904,296C1901,281 1900,267 1903,263C1906,260 1901,249 1891,238C1871,217 1874,182 1896,173C1904,170 1910,161 1910,153C1910,140 1907,140 1894,151C1881,161 1877,161 1870,150C1865,142 1858,139 1854,143C1850,146 1852,155 1858,163C1870,177 1863,194 1839,202C1828,207 1819,200 1811,183C1796,150 1788,158 1799,196C1805,219 1812,224 1830,222C1857,219 1892,252 1884,273C1881,281 1883,291 1889,295C1895,298 1900,309 1900,318C1900,331 1898,332 1891,321C1885,312 1880,311 1876,319C1866,335 1880,352 1897,346C1905,343 1918,340 1926,340ZM2044,288C2050,284 2051,278 2047,273C2042,269 2035,272 2030,280C2023,292 2020,291 2014,276C2010,266 2012,255 2017,251C2023,248 2030,238 2033,230C2037,220 2039,222 2039,238C2040,250 2045,260 2050,260C2065,260 2062,234 2045,220C2034,211 2033,203 2040,189C2049,174 2047,172 2034,177C2025,180 2020,190 2023,201C2026,212 2025,220 2021,220C2017,220 2009,234 2002,252C1992,279 1993,285 2008,297C2023,310 2023,310 2000,304L1975,297L1995,319L2015,342L2024,318C2030,305 2039,292 2044,288ZM1776,311C1767,297 1794,272 1827,265C1855,260 1859,261 1854,274C1851,283 1853,290 1859,290C1871,290 1873,279 1864,256C1857,237 1830,234 1830,253C1830,262 1828,262 1822,252C1810,234 1780,248 1769,277C1757,309 1758,320 1771,320C1776,320 1779,316 1776,311ZM1530,260C1530,245 1536,230 1543,227C1549,225 1552,219 1548,215C1537,204 1509,236 1516,253C1524,276 1492,282 1471,261C1453,243 1440,243 1440,260C1440,271 1490,291 1501,285C1506,281 1510,284 1510,290C1510,296 1515,298 1520,295C1526,292 1530,276 1530,260ZM1748,289C1746,283 1740,278 1735,278C1729,278 1720,266 1713,251C1702,227 1702,227 1701,247C1700,259 1710,276 1722,284C1748,303 1753,304 1748,289ZM1690,245C1690,231 1685,220 1680,220C1674,220 1666,210 1661,198L1653,176L1641,198C1633,212 1633,220 1640,221C1645,222 1656,223 1663,224C1669,225 1674,236 1673,248C1671,260 1675,270 1680,270C1686,270 1690,259 1690,245ZM1420,250C1420,245 1415,240 1408,240C1401,240 1402,234 1412,223C1424,208 1425,201 1414,181C1403,159 1402,159 1391,176C1381,194 1380,194 1374,173C1367,149 1350,141 1350,163C1350,171 1346,170 1340,160C1333,149 1330,148 1330,158C1330,166 1339,174 1350,177C1361,180 1370,188 1370,195C1370,203 1378,206 1390,203C1401,200 1410,203 1410,209C1410,215 1403,220 1395,220C1377,220 1376,232 1392,248C1407,263 1420,264 1420,250ZM1515,182C1508,174 1501,184 1497,206C1496,216 1491,230 1487,236C1484,242 1484,250 1487,254C1491,258 1500,244 1507,224C1514,203 1518,184 1515,182ZM1600,236C1600,228 1596,220 1590,218C1585,217 1579,205 1577,193C1572,156 1560,155 1563,191C1565,224 1577,249 1593,250C1597,250 1600,244 1600,236ZM1940,246C1940,243 1933,234 1924,225C1909,210 1909,208 1929,203C1940,200 1950,193 1950,188C1950,178 1911,187 1896,201C1890,206 1894,218 1905,230C1921,248 1940,257 1940,246ZM1480,208C1480,179 1495,155 1512,155C1519,155 1526,146 1528,136C1533,112 1554,90 1572,90C1588,90 1610,70 1610,56C1610,51 1607,50 1603,53C1600,57 1590,54 1582,47C1569,37 1568,39 1574,58C1580,76 1578,80 1561,80C1537,80 1534,70 1552,52C1558,46 1560,37 1556,33C1545,22 1530,51 1530,85C1530,106 1527,111 1521,101C1516,94 1515,78 1518,66C1521,55 1519,48 1515,53C1500,66 1499,103 1512,111C1522,118 1522,122 1512,132C1502,142 1498,142 1490,130C1485,122 1484,112 1487,106C1490,101 1488,100 1482,104C1466,114 1467,137 1483,143C1489,145 1491,151 1487,156C1482,161 1475,158 1470,149C1464,138 1452,134 1435,138C1407,143 1400,162 1428,159C1469,155 1473,159 1467,195C1464,214 1465,230 1471,230C1476,230 1480,220 1480,208ZM1754,190C1749,185 1736,188 1725,196C1709,208 1708,212 1719,219C1736,230 1767,203 1754,190ZM1638,172C1640,165 1634,160 1625,160C1614,160 1610,165 1613,174C1617,184 1614,187 1604,183C1595,180 1590,184 1590,195C1590,211 1592,211 1612,198C1624,190 1636,178 1638,172ZM1844,171C1847,167 1834,150 1815,134C1796,118 1780,99 1780,91C1780,79 1777,79 1768,88C1758,98 1758,103 1770,110C1778,115 1781,122 1777,127C1773,131 1759,121 1746,105C1733,89 1718,80 1712,84C1697,93 1697,117 1711,126C1719,130 1720,126 1715,111C1706,83 1732,92 1745,123C1751,135 1764,145 1775,146C1815,148 1820,150 1820,165C1820,181 1836,185 1844,171ZM1677,159C1685,151 1694,151 1708,159C1735,174 1740,173 1740,154C1740,144 1734,140 1726,143C1719,146 1707,143 1701,137C1693,129 1687,129 1678,138C1661,155 1652,153 1646,132C1639,112 1570,101 1570,120C1570,125 1562,130 1553,130C1540,130 1539,133 1547,141C1556,150 1563,148 1575,136C1587,124 1596,122 1604,130C1611,135 1619,137 1623,134C1626,131 1635,137 1642,149C1657,173 1662,174 1677,159ZM1958,159C1991,177 2010,172 2010,148C2009,126 2009,126 1996,143C1983,159 1981,160 1966,144C1953,131 1947,130 1935,140C1927,147 1920,158 1920,164C1920,170 1924,169 1929,161C1935,151 1942,150 1958,159ZM1400,144C1400,134 1394,130 1386,133C1376,137 1373,134 1376,126C1379,118 1391,115 1406,118C1433,123 1439,106 1414,96C1404,92 1389,97 1379,106C1361,122 1360,122 1360,107C1360,97 1356,90 1350,90C1335,90 1338,99 1361,131C1384,163 1400,169 1400,144ZM1900,130C1900,125 1907,123 1915,126C1923,130 1930,127 1930,122C1930,104 1912,98 1891,109C1877,117 1870,117 1867,107C1864,100 1861,101 1861,112C1860,127 1872,137 1893,139C1897,140 1900,136 1900,130ZM2060,107C2060,90 2051,82 2023,73C1983,61 1974,62 1985,79C1988,85 2005,90 2022,90C2046,90 2050,93 2041,103C2035,111 2033,120 2037,123C2050,137 2060,130 2060,107ZM1460,100C1460,95 1467,90 1475,90C1483,90 1490,85 1490,79C1490,73 1481,70 1470,73C1459,76 1450,74 1450,70C1450,66 1441,64 1430,67C1416,71 1410,67 1410,56C1410,47 1405,40 1399,40C1393,40 1390,47 1394,55C1397,63 1395,70 1390,70C1384,70 1380,57 1380,40C1380,23 1376,10 1371,10C1366,10 1363,22 1365,38C1367,53 1369,70 1369,77C1370,84 1384,87 1409,85C1440,82 1448,85 1443,96C1440,104 1443,110 1449,110C1455,110 1460,106 1460,100ZM1655,89C1665,74 1652,64 1639,77C1633,83 1621,86 1614,83C1606,80 1600,83 1600,89C1600,103 1647,103 1655,89Z" style="fill-rule:nonzero;"/>
        <path d="M1784,492C1789,484 1783,480 1767,480C1744,480 1743,478 1753,455C1767,425 1772,424 1795,450C1806,462 1808,470 1801,470C1794,470 1791,474 1795,479C1798,484 1795,492 1789,496C1781,500 1780,499 1784,492Z" style="fill:rgb(190,22,34);fill-rule:nonzero;"/>
        <path d="M1790,426C1775,396 1785,373 1806,391C1821,404 1825,436 1812,444C1807,447 1797,439 1790,426Z" style="fill:rgb(190,22,34);fill-rule:nonzero;"/>
        <path d="M1115,510C1107,497 942,390 930,390C924,390 920,383 920,375C920,368 914,357 906,353C899,349 889,334 885,320C880,301 885,305 909,337C927,360 973,400 1013,426C1096,480 1146,520 1131,520C1126,520 1119,516 1115,510Z" style="fill-rule:nonzero;"/>
        <path d="M2083,285C2086,261 2106,247 2104,270C2103,276 2102,287 2102,295C2101,303 2095,310 2090,310C2084,310 2081,299 2083,285Z" style="fill:rgb(190,22,34);fill-rule:nonzero;"/>
        <path d="M1828,53C1813,44 1799,28 1797,18C1793,3 1797,5 1824,25C1842,39 1862,50 1868,50C1875,50 1880,55 1880,60C1880,75 1859,72 1828,53Z" style="fill:rgb(190,22,34);fill-rule:nonzero;"/>
    </g>
</svg>
