<svg width="46" height="43" viewBox="0 0 46 43" fill="none" xmlns="http://www.w3.org/2000/svg">
<path d="M22.9999 0.500003C17.8928 0.497379 12.9516 2.31278 9.06105 5.62113C5.17047 8.92948 2.5846 13.5147 1.76648 18.5558C0.948359 23.5969 1.95141 28.7646 4.59603 33.1335C7.24065 37.5025 11.3541 40.7874 16.1999 42.4C17.2799 42.6 17.6699 41.94 17.6699 41.4V37.75C11.6699 39.05 10.4299 34.87 10.4299 34.87C10.033 33.5474 9.16952 32.4139 7.99986 31.68C6.04986 30.35 8.14986 30.37 8.14986 30.37C8.83102 30.4653 9.48143 30.7149 10.0516 31.0996C10.6217 31.4843 11.0965 31.994 11.4399 32.59C13.3599 35.88 16.4399 34.93 17.6999 34.38C17.7993 33.2876 18.2851 32.2664 19.0699 31.5C14.2899 30.96 9.26986 29.12 9.26986 20.88C9.23818 18.7424 10.0335 16.6751 11.4899 15.11C10.8282 13.2565 10.9034 11.2197 11.6999 9.42C11.6999 9.42 13.4999 8.84 17.6099 11.62C21.1323 10.66 24.8474 10.66 28.3699 11.62C32.4799 8.84 34.2799 9.42 34.2799 9.42C35.0703 11.2211 35.1454 13.2556 34.4899 15.11C35.9434 16.6761 36.7353 18.7436 36.6999 20.88C36.6999 29.14 31.6999 30.95 26.8899 31.49C27.406 32.0129 27.8035 32.6408 28.0554 33.331C28.3073 34.0212 28.4078 34.7576 28.3499 35.49V41.39C28.3499 42.1 28.7399 42.63 29.8299 42.39C34.6707 40.7711 38.7776 37.4828 41.416 33.1132C44.0544 28.7437 45.0521 23.578 44.2307 18.5402C43.4093 13.5024 40.8224 8.92116 36.9327 5.616C33.0429 2.31084 28.1042 0.497374 22.9999 0.500003Z" stroke="black" stroke-linecap="round" stroke-linejoin="round"/>
</svg>
