<svg width="48" height="48" viewBox="0 0 48 48" fill="none" xmlns="http://www.w3.org/2000/svg">
<path d="M35.38 10.46C34.9469 10.4541 34.5218 10.5768 34.1584 10.8125C33.795 11.0482 33.5097 11.3863 33.3385 11.7842C33.1673 12.182 33.1179 12.6217 33.1966 13.0476C33.2753 13.4735 33.4785 13.8666 33.7805 14.177C34.0826 14.4874 34.4699 14.7013 34.8935 14.7916C35.3171 14.882 35.758 14.8447 36.1603 14.6844C36.5627 14.5242 36.9086 14.2482 37.1542 13.8914C37.3997 13.5347 37.534 13.1131 37.5399 12.68V12.62C37.5347 12.0487 37.3055 11.5024 36.9015 11.0984C36.4976 10.6945 35.9512 10.4652 35.38 10.46Z" stroke="black" stroke-linecap="round" stroke-linejoin="round"/>
<path d="M40.55 5.5H7.45C6.92828 5.51305 6.43233 5.72951 6.068 6.10317C5.70367 6.47684 5.49984 6.97812 5.5 7.5V40.6C5.5 41.1304 5.71071 41.6391 6.08579 42.0142C6.46086 42.3893 6.96957 42.6 7.5 42.6H40.6C41.1304 42.6 41.6391 42.3893 42.0142 42.0142C42.3893 41.6391 42.6 41.1304 42.6 40.6V7.45C42.5935 7.18733 42.5353 6.92851 42.4288 6.68834C42.3222 6.44816 42.1694 6.23133 41.979 6.05024C41.7887 5.86915 41.5645 5.72735 41.3193 5.63294C41.0741 5.53852 40.8127 5.49335 40.55 5.5Z" stroke="black" stroke-linecap="round" stroke-linejoin="round"/>
<path d="M24.0002 15.72C22.3626 15.72 20.7617 16.2056 19.4001 17.1154C18.0385 18.0252 16.9772 19.3184 16.3505 20.8314C15.7238 22.3444 15.5598 24.0092 15.8793 25.6153C16.1988 27.2215 16.9874 28.6969 18.1454 29.8548C19.3034 31.0128 20.7787 31.8014 22.3849 32.1209C23.991 32.4404 25.6559 32.2764 27.1688 31.6497C28.6818 31.023 29.975 29.9618 30.8848 28.6001C31.7946 27.2385 32.2802 25.6376 32.2802 24C32.2802 21.804 31.4079 19.698 29.8551 18.1452C28.3023 16.5924 26.1962 15.72 24.0002 15.72Z" stroke="black" stroke-linecap="round" stroke-linejoin="round"/>
</svg>
