<svg width="48" height="48" viewBox="0 0 48 48" fill="none" xmlns="http://www.w3.org/2000/svg">
<path d="M15.6401 14.21C16.0544 14.21 16.3901 13.8742 16.3901 13.46C16.3901 13.0458 16.0544 12.71 15.6401 12.71C15.2259 12.71 14.8901 13.0458 14.8901 13.46C14.8901 13.8742 15.2259 14.21 15.6401 14.21Z" fill="black"/>
<path d="M15.6401 16.93V31.91M33.1101 31.91V22.3C33.1075 20.7572 32.4935 19.2784 31.4026 18.1876C30.3117 17.0967 28.8329 16.4826 27.2901 16.48C25.7457 16.48 24.2643 17.0929 23.1712 18.184C22.0782 19.2752 21.4628 20.7555 21.4601 22.3M21.4601 22.3V31.91M21.4601 22.3V16.93" stroke="black" stroke-linecap="round" stroke-linejoin="round"/>
<path d="M40.5 5.5H7.5C6.96957 5.5 6.46086 5.71071 6.08579 6.08579C5.71071 6.46086 5.5 6.96957 5.5 7.5V40.5C5.5 41.0304 5.71071 41.5391 6.08579 41.9142C6.46086 42.2893 6.96957 42.5 7.5 42.5H40.5C41.0304 42.5 41.5391 42.2893 41.9142 41.9142C42.2893 41.5391 42.5 41.0304 42.5 40.5V7.5C42.5 6.96957 42.2893 6.46086 41.9142 6.08579C41.5391 5.71071 41.0304 5.5 40.5 5.5Z" stroke="black" stroke-linecap="round" stroke-linejoin="round"/>
</svg>
