<svg width="1794" height="335" viewBox="0 0 1794 335" fill="none" xmlns="http://www.w3.org/2000/svg">
<g filter="url(#filter0_d_37_326)">
<path d="M96.9353 275.368L88.3301 225.458H42.8951L34.9784 275.368H4L42.2067 59.8926H87.2975L128.258 275.368H96.9353ZM46.6814 200.331H84.1997L64.58 86.741L46.6814 200.331Z" fill="#333333"/>
<path d="M177.398 275.368H150.206V59.8926H184.283L221.112 193.446L257.942 59.8926H292.019V275.368H264.826V117.72L235.225 228.556H207L177.398 118.064V275.368Z" fill="#333333"/>
<path d="M327.687 59.8926H398.249C419.589 59.8926 430.26 69.9895 430.26 90.1831V161.779C430.26 181.973 419.589 192.069 398.249 192.069H358.665V275.368H327.687V59.8926ZM399.281 156.96V95.0021C399.281 90.8716 398.593 88.2326 397.216 87.0852C395.839 85.7084 393.086 85.02 388.955 85.02H358.665V167.286H388.955C393.086 167.286 395.839 166.598 397.216 165.221C398.593 163.844 399.281 161.091 399.281 156.96Z" fill="#333333"/>
<path d="M536.939 275.368L528.334 225.458H482.899L474.982 275.368H444.004L482.211 59.8926H527.301L568.262 275.368H536.939ZM486.685 200.331H524.204L504.584 86.741L486.685 200.331Z" fill="#333333"/>
<path d="M621.189 188.283V275.368H590.21V59.8926H660.772C682.113 59.8926 692.783 69.9895 692.783 90.1831V157.648C692.783 175.088 685.096 185.071 669.721 187.595L703.798 275.368H670.41L638.055 188.283H621.189ZM621.189 85.02V163.5H651.479C655.609 163.5 658.363 162.926 659.739 161.779C661.116 160.402 661.805 157.648 661.805 153.518V95.0021C661.805 90.8716 661.116 88.2326 659.739 87.0852C658.363 85.7084 655.609 85.02 651.479 85.02H621.189Z" fill="#333333"/>
<path d="M757.316 59.8926H795.523C816.864 59.8926 827.534 69.9895 827.534 90.1831V245.078C827.534 265.272 816.864 275.368 795.523 275.368H757.316C735.746 275.368 724.961 265.272 724.961 245.078V90.1831C724.961 69.9895 735.746 59.8926 757.316 59.8926ZM796.555 240.259V95.0021C796.555 90.8716 795.867 88.2326 794.49 87.0852C793.113 85.7084 790.36 85.02 786.229 85.02H766.265C762.135 85.02 759.381 85.7084 758.005 87.0852C756.857 88.2326 756.284 90.8716 756.284 95.0021V240.259C756.284 244.389 756.857 247.143 758.005 248.52C759.381 249.667 762.135 250.241 766.265 250.241H786.229C790.36 250.241 793.113 249.667 794.49 248.52C795.867 247.143 796.555 244.389 796.555 240.259Z" fill="#333333"/>
<path d="M1022.58 143.536V94.3137C1022.58 90.1831 1021.89 87.5442 1020.51 86.3968C1019.13 85.02 1016.38 84.3316 1012.25 84.3316H977.83V153.518H1012.25C1016.38 153.518 1019.13 152.944 1020.51 151.797C1021.89 150.42 1022.58 147.666 1022.58 143.536ZM1022.58 240.947V187.939C1022.58 183.808 1021.89 181.169 1020.51 180.022C1019.13 178.645 1016.38 177.957 1012.25 177.957H977.83V250.929H1012.25C1016.38 250.929 1019.13 250.356 1020.51 249.208C1021.89 247.832 1022.58 245.078 1022.58 240.947ZM946.852 59.8926H1021.54C1043.11 59.8926 1053.9 69.9895 1053.9 90.1831V144.913C1053.9 157.075 1049.31 164.188 1040.13 166.254C1049.31 168.548 1053.9 175.203 1053.9 186.218V245.078C1053.9 265.272 1043.11 275.368 1021.54 275.368H946.852V59.8926Z" fill="#333333"/>
<path d="M1119.02 250.241H1181.32V275.368H1087.69V59.8926H1178.91V85.02H1119.02V151.453H1168.58V176.58H1119.02V250.241Z" fill="#333333"/>
<path d="M1236.66 250.241H1290.01V275.368H1205.68V59.8926H1236.66V250.241Z" fill="#333333"/>
<path d="M1396.29 59.8926V85.02H1360.15V275.368H1329.17V85.02H1293.03V59.8926H1396.29Z" fill="#333333"/>
<path d="M1446.74 188.283V275.368H1415.76V59.8926H1486.33C1507.67 59.8926 1518.34 69.9895 1518.34 90.1831V157.648C1518.34 175.088 1510.65 185.071 1495.27 187.595L1529.35 275.368H1495.96L1463.61 188.283H1446.74ZM1446.74 85.02V163.5H1477.03C1481.16 163.5 1483.92 162.926 1485.29 161.779C1486.67 160.402 1487.36 157.648 1487.36 153.518V95.0021C1487.36 90.8716 1486.67 88.2326 1485.29 87.0852C1483.92 85.7084 1481.16 85.02 1477.03 85.02H1446.74Z" fill="#333333"/>
<path d="M1631.4 275.368L1622.8 225.458H1577.36L1569.45 275.368H1538.47L1576.67 59.8926H1621.76L1662.73 275.368H1631.4ZM1581.15 200.331H1618.67L1599.05 86.741L1581.15 200.331Z" fill="#333333"/>
<path d="M1761.43 59.8926H1790V275.368H1758.68L1713.24 119.785V275.368H1684.67V59.8926H1717.37L1761.43 211.001V59.8926Z" fill="#333333"/>
<path d="M865.054 0H908.079V327H865.054V0Z" fill="#BE1622"/>
</g>
<defs>
<filter id="filter0_d_37_326" x="0" y="0" width="1794" height="335" filterUnits="userSpaceOnUse" color-interpolation-filters="sRGB">
<feFlood flood-opacity="0" result="BackgroundImageFix"/>
<feColorMatrix in="SourceAlpha" type="matrix" values="0 0 0 0 0 0 0 0 0 0 0 0 0 0 0 0 0 0 127 0" result="hardAlpha"/>
<feOffset dy="4"/>
<feGaussianBlur stdDeviation="2"/>
<feComposite in2="hardAlpha" operator="out"/>
<feColorMatrix type="matrix" values="0 0 0 0 0 0 0 0 0 0 0 0 0 0 0 0 0 0 0.25 0"/>
<feBlend mode="normal" in2="BackgroundImageFix" result="effect1_dropShadow_37_326"/>
<feBlend mode="normal" in="SourceGraphic" in2="effect1_dropShadow_37_326" result="shape"/>
</filter>
</defs>
</svg>
