<svg width="32" height="32" viewBox="0 0 32 32" fill="none" xmlns="http://www.w3.org/2000/svg">
<g clip-path="url(#clip0_67_6)">
<path d="M26.6875 0H5.3125C2.37849 0 0 2.43557 0 5.44V26.5088C0 29.5132 2.37849 31.9488 5.3125 31.9488H26.6875C29.6215 31.9488 32 29.5132 32 26.5088V5.44C32 2.43557 29.6215 0 26.6875 0Z" fill="#330000"/>
<path d="M15.5068 19.173H10.548L9.53901 22.3824C9.52528 22.4409 9.49203 22.4927 9.445 22.5288C9.39797 22.5649 9.34011 22.5831 9.28138 22.5802H6.76976C6.62663 22.5802 6.57651 22.4996 6.61951 22.3383L10.9129 9.67682C10.9558 9.54498 10.9988 9.39484 11.0416 9.22626C11.0979 8.93289 11.1266 8.6349 11.1275 8.33602C11.1246 8.31512 11.1265 8.2938 11.133 8.27376C11.1395 8.25372 11.1505 8.23552 11.165 8.22058C11.1796 8.20564 11.1974 8.19438 11.217 8.18769C11.2365 8.181 11.2573 8.17906 11.2778 8.18204H14.691C14.791 8.18204 14.8483 8.21878 14.8628 8.29212L19.7356 22.3603C19.7786 22.507 19.7356 22.5804 19.6069 22.5802H16.8161C16.7682 22.5857 16.72 22.5731 16.6805 22.5448C16.641 22.5164 16.6129 22.4744 16.6015 22.4264L15.5068 19.173ZM11.3208 16.4034H14.7125L14.6641 16.2399L14.5865 15.9811L14.5311 15.7993L14.4428 15.5131L14.2549 14.9106L14.0896 14.3765L13.6605 12.9851C13.5537 12.6392 13.4512 12.292 13.353 11.9434L13.2745 11.6606L13.1828 11.3261L13.0428 10.8077L13.0165 10.71H12.9951C12.8877 11.2377 12.7569 11.76 12.6031 12.2755L12.2846 13.3246L12.1094 13.9042L11.9325 14.4909C11.9005 14.5969 11.8688 14.7017 11.8369 14.8053L11.7419 15.1122L11.6474 15.412L11.5534 15.7043L11.4599 15.9894C11.4289 16.0832 11.3979 16.1758 11.367 16.2672L11.3208 16.4034ZM22.6334 10.5122C22.4144 10.5212 22.1961 10.4827 21.9927 10.3994C21.7892 10.3161 21.6052 10.1897 21.4528 10.0286C21.3007 9.86044 21.1826 9.66319 21.1052 9.44815C21.0278 9.23312 20.9927 9.00455 21.0019 8.77558C20.9941 8.5489 21.0331 8.3231 21.1163 8.1129C21.1995 7.90271 21.3251 7.71285 21.4849 7.55574C21.793 7.25284 22.2034 7.08333 22.6305 7.08252L22.6763 7.08303C23.1915 7.08303 23.5959 7.24047 23.8893 7.55561C24.0373 7.71934 24.1524 7.91138 24.2279 8.12072C24.3034 8.33006 24.3379 8.55259 24.3293 8.77558C24.3383 9.00546 24.302 9.23485 24.2228 9.45012C24.1435 9.66539 24.0228 9.86214 23.8678 10.0287C23.7113 10.1866 23.5255 10.3109 23.3214 10.3943C23.1173 10.4776 22.8989 10.5182 22.6793 10.5138L22.6334 10.5122ZM21.1521 22.3603V11.8531C21.1521 11.7212 21.2091 11.6552 21.3239 11.6552H23.9644C24.0788 11.6552 24.136 11.7211 24.1361 11.8531V22.3603C24.1361 22.507 24.0789 22.5804 23.9644 22.5802H21.3454C21.2234 22.5802 21.1591 22.5145 21.1528 22.3829L21.1521 22.3603Z" fill="#FF9A00"/>
</g>
<defs>
<clipPath id="clip0_67_6">
<rect width="32" height="32" fill="white"/>
</clipPath>
</defs>
</svg>
