<svg width="32" height="32" viewBox="0 0 32 32" fill="none" xmlns="http://www.w3.org/2000/svg">
<g clip-path="url(#clip0_67_9)">
<path d="M26.6875 0H5.3125C2.37849 0 0 2.43557 0 5.44V26.5088C0 29.5132 2.37849 31.9488 5.3125 31.9488H26.6875C29.6215 31.9488 32 29.5132 32 26.5088V5.44C32 2.43557 29.6215 0 26.6875 0Z" fill="#49021F"/>
<path d="M11.6211 8.35814V22.3606C11.6211 22.5073 11.5567 22.5805 11.4278 22.5805H8.83032C8.71569 22.5805 8.65844 22.5071 8.65869 22.3606V8.35814C8.65869 8.24102 8.72307 8.18239 8.85182 8.18226H11.4493C11.4712 8.1791 11.4934 8.18084 11.5145 8.18737C11.5356 8.1939 11.5551 8.20507 11.5716 8.22009C11.5881 8.23511 11.6012 8.25363 11.6099 8.27435C11.6187 8.29507 11.623 8.31751 11.6224 8.34009L11.6211 8.35814ZM19.4443 22.7988L19.3061 22.8002C18.318 22.8156 17.3391 22.6054 16.4403 22.1848C15.603 21.788 14.9031 21.1403 14.4332 20.3273C13.9583 19.5197 13.7152 18.5131 13.7037 17.3078L13.7033 17.2169C13.6953 16.208 13.9471 15.2148 14.4333 14.3373C14.9207 13.4674 15.6316 12.751 16.4887 12.2658L16.5584 12.2269C17.4884 11.6994 18.6119 11.4356 19.9287 11.4356L19.9564 11.4358L20.0181 11.4372L20.0878 11.44L20.1657 11.4441L20.2516 11.4496L20.3454 11.4566L20.5576 11.4744L20.6156 11.4795V7.1493C20.6156 7.0469 20.6586 6.99532 20.7443 6.99532H23.4492C23.4667 6.99275 23.4845 6.99439 23.5013 7.00011C23.5181 7.00582 23.5333 7.01546 23.5458 7.02826C23.5583 7.04105 23.5677 7.05665 23.5733 7.07382C23.5789 7.09099 23.5805 7.10925 23.5779 7.12716V20.1185C23.5788 20.3899 23.5896 20.6612 23.6102 20.9318L23.6304 21.2152L23.6483 21.479L23.6638 21.7231C23.6665 21.7688 23.6556 21.8142 23.6326 21.8535C23.6097 21.8927 23.5757 21.9239 23.5351 21.943C22.8373 22.241 22.1105 22.462 21.3669 22.6024C20.7325 22.7223 20.0895 22.788 19.4444 22.7988H19.4443ZM20.6156 20.0745V14.0735C20.4996 14.0413 20.3811 14.0192 20.2614 14.0075C20.1152 13.9925 19.9683 13.9851 19.8213 13.9855C19.3003 13.9803 18.7856 14.1007 18.3187 14.3373C17.8639 14.5688 17.4756 14.9172 17.1917 15.3485C16.8982 15.788 16.7514 16.367 16.7516 17.085C16.7411 17.5642 16.8175 18.0412 16.9769 18.4918C17.1067 18.8549 17.3118 19.1849 17.5781 19.4591C17.833 19.7113 18.1417 19.8994 18.4797 20.0086C18.8367 20.127 19.2099 20.1864 19.5852 20.1846C19.7854 20.1846 19.9714 20.1771 20.1433 20.1624C20.2804 20.1519 20.4163 20.1287 20.5493 20.0933L20.6156 20.0745Z" fill="#FF3366"/>
</g>
<defs>
<clipPath id="clip0_67_9">
<rect width="32" height="32" fill="white"/>
</clipPath>
</defs>
</svg>
