<svg width="32" height="32" viewBox="0 0 32 32" fill="none" xmlns="http://www.w3.org/2000/svg">
<g clip-path="url(#clip0_67_3)">
<path d="M26.6875 0H5.3125C2.37849 0 0 2.43557 0 5.44V26.5088C0 29.5132 2.37849 31.9488 5.3125 31.9488H26.6875C29.6215 31.9488 32 29.5132 32 26.5088V5.44C32 2.43557 29.6215 0 26.6875 0Z" fill="#001E36"/>
<path d="M7.20544 22.4044V8.35796C7.20544 8.25556 7.24844 8.2041 7.33432 8.2041L7.47019 8.20372L7.70244 8.20116L8.02519 8.19463L9.10644 8.17121L10.2658 8.14919C10.6736 8.14202 11.0778 8.13818 11.4786 8.13818C12.5661 8.13818 13.4819 8.27745 14.2263 8.55585C14.8978 8.78842 15.5101 9.17139 16.0188 9.67687C16.45 10.1151 16.7833 10.6438 16.9956 11.2267C17.1964 11.7939 17.2981 12.3929 17.2962 12.9962C17.2962 14.1688 17.0313 15.1359 16.5018 15.8978C15.9839 16.6411 15.2615 17.2095 14.4268 17.5306L14.3552 17.5574C13.4836 17.8904 12.5183 18.0107 11.4597 18.0182L11.2952 18.0188L11.0511 18.0175L10.9279 18.0157L10.7907 18.0124L10.7079 18.009L10.6577 18.0063L10.5341 18.0017L10.3829 17.9985L10.1554 17.9969L10.1048 17.9967V22.3824C10.1086 22.4093 10.1062 22.4367 10.0978 22.4625C10.0894 22.4882 10.0753 22.5117 10.0565 22.5309C10.0378 22.5501 10.0149 22.5645 9.98975 22.5731C9.96459 22.5817 9.93782 22.5841 9.91157 22.5803H7.35582C7.25544 22.5803 7.20544 22.5219 7.20544 22.4044ZM10.1049 10.8419V15.4233C10.2763 15.4375 10.4481 15.4448 10.6199 15.4453H11.3284C11.8169 15.4436 12.3025 15.3692 12.7701 15.2243L12.8633 15.1944C13.2886 15.0651 13.6687 14.8132 13.9582 14.4689C14.2272 14.1441 14.3666 13.6965 14.3762 13.126L14.3768 13.0621C14.3881 12.6369 14.2801 12.2173 14.0654 11.8531C13.8399 11.5009 13.5138 11.2284 13.1317 11.0727C12.6327 10.8741 12.0997 10.7807 11.5646 10.798L11.2923 10.7988L11.1206 10.8003L10.9567 10.8025L10.7254 10.8071L10.5567 10.812L10.4691 10.8153L10.3519 10.8209L10.2522 10.8272L10.1953 10.8318L10.1462 10.8367L10.1246 10.8392L10.1049 10.8419ZM25.5962 14.5903C25.2217 14.3932 24.8245 14.2452 24.4139 14.1497L24.3189 14.1287C23.8673 14.0226 23.4061 13.9641 22.9428 13.9542L22.8271 13.9528C22.5555 13.9453 22.2842 13.9786 22.0221 14.0518C21.8552 14.0898 21.7068 14.1871 21.6033 14.3265C21.5334 14.438 21.4961 14.5677 21.4961 14.7002C21.5 14.8288 21.5452 14.9524 21.6248 15.0518C21.7387 15.1883 21.8757 15.3026 22.0292 15.3894L22.0757 15.4146C22.3818 15.5834 22.6971 15.7338 23.0202 15.8652C23.7406 16.1121 24.429 16.448 25.0702 16.8654C25.507 17.1477 25.8685 17.5367 26.1222 17.9975C26.3354 18.4338 26.4422 18.9165 26.4334 19.4042C26.4463 20.0484 26.2665 20.6813 25.9182 21.2179C25.5453 21.7625 25.0274 22.1859 24.4262 22.4377C23.7966 22.7211 23.0233 22.8674 22.1066 22.877L22.0113 22.8775C21.443 22.8834 20.8755 22.8325 20.3168 22.7254L20.1973 22.7016C19.727 22.6133 19.2691 22.4656 18.8342 22.262C18.7905 22.2389 18.7536 22.2043 18.7272 22.1618C18.7008 22.1193 18.6858 22.0704 18.6839 22.02V19.6241C18.6814 19.6009 18.685 19.5773 18.6945 19.556C18.7039 19.5347 18.7189 19.5165 18.7377 19.5032C18.7561 19.4925 18.7773 19.4879 18.7984 19.4898C18.8195 19.4918 18.8394 19.5003 18.8557 19.5142C19.3693 19.8243 19.9269 20.0505 20.5086 20.1846C21.0213 20.3163 21.5472 20.3864 22.0757 20.3935C22.5764 20.3935 22.9449 20.3275 23.1812 20.1957C23.2879 20.1457 23.3781 20.0651 23.441 19.9636C23.5039 19.8622 23.5367 19.7443 23.5354 19.6241C23.5354 19.4339 23.4281 19.2506 23.2134 19.0746C23.1234 19.0009 22.9943 18.9206 22.8263 18.834L22.7459 18.7935L22.6602 18.7522L22.6152 18.7312L22.5209 18.6885C22.5046 18.6811 22.4882 18.6739 22.4718 18.6667L22.3693 18.6227L22.3159 18.6003L22.2052 18.5548L22.1477 18.5318L22.0286 18.4848L21.9039 18.4371C21.2299 18.1968 20.5908 17.8641 20.0041 17.4479C19.5845 17.149 19.239 16.7538 18.9952 16.2938C18.7841 15.8607 18.6774 15.382 18.6839 14.898C18.6827 14.3164 18.8388 13.7458 19.1347 13.2494C19.4722 12.7028 19.9567 12.2676 20.5301 11.9965C21.1597 11.6743 21.9467 11.513 22.8913 11.5128C23.4446 11.5082 23.9973 11.5487 24.5443 11.6337C24.9404 11.6852 25.3277 11.7924 25.6951 11.9525C25.7542 11.9699 25.8018 12.0145 25.8238 12.0734C25.8384 12.127 25.8456 12.1825 25.8453 12.2383V14.4584C25.8484 14.5109 25.8238 14.5612 25.7809 14.5903C25.7522 14.6049 25.7206 14.6125 25.6886 14.6125C25.6565 14.6125 25.6249 14.6049 25.5962 14.5903Z" fill="#31A8FF"/>
</g>
<defs>
<clipPath id="clip0_67_3">
<rect width="32" height="32" fill="white"/>
</clipPath>
</defs>
</svg>
