<svg width="32" height="32" viewBox="0 0 32 32" fill="none" xmlns="http://www.w3.org/2000/svg">
<g clip-path="url(#clip0_67_12)">
<path d="M26.6875 0H5.3125C2.37849 0 0 2.43557 0 5.44V26.5088C0 29.5132 2.37849 31.9488 5.3125 31.9488H26.6875C29.6215 31.9488 32 29.5132 32 26.5088V5.44C32 2.43557 29.6215 0 26.6875 0Z" fill="#470137"/>
<path d="M16.8222 8.40204L12.8293 15.1506L17.1012 22.3167C17.1287 22.3668 17.1363 22.4257 17.1227 22.4815C17.1161 22.5053 17.1018 22.5112 17.08 22.5121L17.0557 22.5117L17.0262 22.511C17.0102 22.511 16.9923 22.5117 16.9725 22.5151H13.8925L13.832 22.514C13.666 22.5096 13.5463 22.4852 13.4735 22.3606C13.1885 21.7921 12.9022 21.2242 12.6147 20.657C12.3575 20.1511 12.0933 19.649 11.8222 19.1508L11.7025 18.9314C11.3782 18.3413 11.0597 17.7478 10.7472 17.151H10.7257C10.4371 17.7415 10.1401 18.3277 9.83483 18.9094C9.52696 19.4957 9.22283 20.0783 8.92245 20.657C8.6219 21.2362 8.31421 21.8114 7.99945 22.3826C7.94883 22.4991 7.86471 22.5234 7.74758 22.5274L7.69883 22.5281H4.75795L4.74521 22.5285L4.70321 22.5323C4.67983 22.5338 4.66583 22.5286 4.66133 22.4925C4.65326 22.4389 4.66474 22.3842 4.69358 22.3387L8.83658 15.3704L4.80083 8.38028C4.75796 8.32191 4.75083 8.2743 4.77933 8.23743C4.79517 8.21865 4.81506 8.2039 4.83743 8.19435C4.8598 8.1848 4.88403 8.1807 4.9082 8.18239H7.93496C8.00096 8.17869 8.06695 8.18997 8.12821 8.21542C8.17946 8.24524 8.22358 8.28658 8.25696 8.33638C8.51458 8.92262 8.80083 9.50886 9.11571 10.0948C9.42814 10.6771 9.74657 11.256 10.071 11.8314C10.3904 12.3979 10.6876 12.9772 10.9618 13.568H10.9833C11.2644 12.9774 11.5542 12.3911 11.8527 11.8095C12.1458 11.238 12.4465 10.6626 12.7542 10.0838C13.058 9.51244 13.355 8.93725 13.6451 8.35839C13.6616 8.30412 13.6911 8.25497 13.731 8.21542C13.784 8.18793 13.8436 8.17647 13.9027 8.18239H16.7148C16.7407 8.17579 16.7679 8.17797 16.7925 8.18859C16.817 8.19921 16.8375 8.21771 16.8509 8.2413C16.8643 8.26489 16.8699 8.29229 16.8667 8.31938C16.8636 8.34648 16.852 8.3718 16.8336 8.39154L16.8223 8.4023L16.8222 8.40204ZM23.131 22.7986L22.983 22.8002C21.9949 22.8157 21.0159 22.6054 20.1171 22.1848C19.2798 21.788 18.5799 21.1403 18.11 20.3273C17.6361 19.5214 17.3928 18.5171 17.3806 17.3148L17.3801 17.2169C17.372 16.208 17.6238 15.2148 18.1101 14.3373C18.5967 13.4688 19.3062 12.7532 20.1616 12.268L20.2352 12.2271C21.1652 11.6994 22.2887 11.4356 23.6055 11.4356L23.663 11.4363L23.7287 11.4385L23.8025 11.4418L23.8845 11.4466L24.0222 11.4566L24.1782 11.4694L24.2923 11.4797V7.14918C24.2923 7.04678 24.3353 6.99532 24.4211 6.99532H27.126C27.1434 6.99275 27.1613 6.99439 27.178 7.00011C27.1948 7.00582 27.21 7.01546 27.2225 7.02826C27.235 7.04105 27.2444 7.05665 27.25 7.07382C27.2556 7.09099 27.2572 7.10925 27.2547 7.12716V20.1185C27.2547 20.3366 27.263 20.5716 27.2795 20.823L27.3195 21.3933L27.3407 21.7231C27.3433 21.7688 27.3325 21.8142 27.3095 21.8535C27.2865 21.8927 27.2524 21.9239 27.2118 21.943C26.514 22.241 25.7872 22.462 25.0437 22.6024C24.4125 22.7217 23.7727 22.7873 23.131 22.7986ZM24.2923 20.0745V14.0735C24.1763 14.0413 24.0579 14.0192 23.9382 14.0075C23.792 13.9925 23.6451 13.9851 23.4981 13.9855C22.9772 13.9802 22.4624 14.1008 21.9955 14.3373C21.5406 14.5688 21.1523 14.9172 20.8685 15.3485C20.5851 15.7729 20.4385 16.3272 20.4288 17.0112L20.4283 17.085C20.4179 17.5642 20.4943 18.0412 20.6537 18.4918C20.7835 18.8549 20.9886 19.1849 21.255 19.4591C21.5099 19.7112 21.8185 19.8993 22.1565 20.0086C22.5135 20.127 22.8867 20.1864 23.262 20.1846C23.4622 20.1846 23.6482 20.1771 23.8201 20.1624C23.9572 20.1519 24.093 20.1287 24.2261 20.0933L24.2923 20.0745Z" fill="#FF61F6"/>
</g>
<defs>
<clipPath id="clip0_67_12">
<rect width="32" height="32" fill="white"/>
</clipPath>
</defs>
</svg>
